<?xml version="1.0" encoding="utf-8"?>
<!-- Generator: Adobe Illustrator 16.0.2, SVG Export Plug-In . SVG Version: 6.00 Build 0)  -->
<!DOCTYPE svg PUBLIC "-//W3C//DTD SVG 1.1//EN" "http://www.w3.org/Graphics/SVG/1.1/DTD/svg11.dtd">
<svg version="1.1" id="Layer_1" xmlns="http://www.w3.org/2000/svg" xmlns:xlink="http://www.w3.org/1999/xlink" x="0px" y="0px"
	 width="512px" height="512px" viewBox="0 0 512 512" enable-background="new 0 0 512 512" xml:space="preserve">
<path d="M192,192h-64L256,64l128,128h-64v128H192V192z M512,320v192H0V320l64-128V0h288l96,96v96L512,320z M448,320h28.219
	L448,263.563V320z M96,320h31.984L192,416h128l64-96h32v-96V109.25L338.75,32H96v192V320z M35.781,320H64v-56.438L35.781,320z
	 M480,352h-78.875l-64,96h-162.25l-64.016-96H32v128h448V352z"/>
</svg>
